<?xml version="1.0" encoding="UTF-8" standalone="no"?>
<!-- Created with Inkscape (http://www.inkscape.org/) -->

<svg
   xmlns:dc="http://purl.org/dc/elements/1.1/"
   xmlns:cc="http://creativecommons.org/ns#"
   xmlns:rdf="http://www.w3.org/1999/02/22-rdf-syntax-ns#"
   xmlns:svg="http://www.w3.org/2000/svg"
   xmlns="http://www.w3.org/2000/svg"
   xmlns:sodipodi="http://sodipodi.sourceforge.net/DTD/sodipodi-0.dtd"
   xmlns:inkscape="http://www.inkscape.org/namespaces/inkscape"
   width="125"
   height="125"
   viewBox="0 0 125 125"
   id="svg2"
   version="1.1"
   inkscape:version="0.91 r13725"
   sodipodi:docname="circle.svg">
  <defs
     id="defs4" />
  <sodipodi:namedview
     id="base"
     pagecolor="#ffffff"
     bordercolor="#666666"
     borderopacity="1.0"
     inkscape:pageopacity="0.0"
     inkscape:pageshadow="2"
     inkscape:zoom="1.979899"
     inkscape:cx="11.118056"
     inkscape:cy="83.858221"
     inkscape:document-units="px"
     inkscape:current-layer="layer1"
     showgrid="false"
     units="px"
     fit-margin-top="0"
     fit-margin-left="0"
     fit-margin-right="0"
     fit-margin-bottom="0"
     inkscape:window-width="1366"
     inkscape:window-height="705"
     inkscape:window-x="-8"
     inkscape:window-y="-8"
     inkscape:window-maximized="1" />
  <metadata
     id="metadata7">
    <rdf:RDF>
      <cc:Work
         rdf:about="">
        <dc:format>image/svg+xml</dc:format>
        <dc:type
           rdf:resource="http://purl.org/dc/dcmitype/StillImage" />
        <dc:title></dc:title>
      </cc:Work>
    </rdf:RDF>
  </metadata>
  <g
     inkscape:label="Layer 1"
     inkscape:groupmode="layer"
     id="layer1"
     transform="translate(-29.948634,-901.44542)">
    <ellipse
       style="opacity:0.15;fill:#ffffff;fill-opacity:1"
       id="path4136"
       cx="285.71429"
       cy="225.21931"
       rx="40"
       ry="104.28571" />
    <path
       style="opacity:0.15;fill:#ff55ff;fill-opacity:1"
       d="M 92.326285,902.19736 A 61.871841,62.124378 0 0 0 30.45324,964.32041 61.871841,62.124378 0 0 0 92.326285,1026.4454 61.871841,62.124378 0 0 0 154.19738,964.32041 61.871841,62.124378 0 0 0 92.326285,902.19736 Z m 0,10.10157 A 51.51778,52.022858 0 0 1 143.84386,964.32041 51.51778,52.022858 0 0 1 92.326285,1016.3439 51.51778,52.022858 0 0 1 40.80871,964.32041 51.51778,52.022858 0 0 1 92.326285,912.29893 Z"
       id="path4149"
       inkscape:connector-curvature="0" />
  </g>
</svg>
